<svg xmlns="http://www.w3.org/2000/svg" width="933.333" height="933.333" preserveAspectRatio="xMidYMid meet" version="1.0" viewBox="0 0 700 700"><metadata>Created by potrace 1.11, written by Peter Selinger 2001-2013</metadata><g fill="#000" stroke="none"><path d="M0 3500 l0 -3500 3500 0 3500 0 0 3500 0 3500 -3500 0 -3500 0 0 -3500z m2925 40 c226 -663 421 -1223 432 -1246 29 -55 88 -106 156 -134 40 -17 57 -29 57 -42 0 -17 -24 -18 -510 -18 -486 0 -510 1 -510 18 0 13 17 25 53 40 81 34 110 69 114 139 3 51 -9 94 -95 358 l-99 300 -446 3 -445 2 -22 -62 c-115 -333 -190 -569 -190 -603 0 -57 22 -83 107 -122 54 -25 73 -39 73 -53 0 -19 -8 -20 -276 -20 l-275 0 3 22 c2 16 16 26 53 38 112 38 178 87 214 159 14 27 670 1897 833 2374 l20 57 171 -2 170 -3 412 -1205z m2803 1172 c-3 -21 -1272 -2337 -1370 -2500 l-20 -33 488 3 c530 3 501 0 592 61 60 40 112 114 222 320 77 144 99 177 116 177 20 0 21 -4 18 -62 -6 -84 -24 -510 -24 -548 l0 -30 -1025 0 -1025 0 0 24 c0 14 305 577 685 1264 376 682 688 1247 691 1256 6 16 -25 17 -422 14 l-429 -3 -57 -27 c-101 -47 -142 -100 -308 -395 -60 -106 -79 -133 -96 -133 -20 0 -21 4 -18 63 6 83 24 509 24 547 l0 30 981 0 981 0 -4 -28z" transform="translate(0.000000,700.000000) scale(0.100000,-0.100000)"/><path d="M2090 4280 c0 -3 -97 -279 -214 -615 -117 -335 -211 -613 -209 -617 7 -13 823 -10 823 3 0 8 -380 1187 -394 1224 -3 6 -5 8 -6 5z" transform="translate(0.000000,700.000000) scale(0.100000,-0.100000)"/></g></svg>